<svg height="452pt" viewBox="-4 0 452 452.031" width="452pt" xmlns="http://www.w3.org/2000/svg"><path d="m64.835938 22.351562c-1.945313 23.125-26.046876 26.777344-26.046876 26.777344 20.691407.972656 25.847657 28.117188 25.847657 28.117188.441406-19.351563 26.644531-28.402344 26.644531-28.402344-19.625-1.175781-26.445312-26.492188-26.445312-26.492188zm0 0" fill="#d7e057"/><path d="m91.460938 45.847656c-17.207032-1.027344-23.664063-24.046875-23.726563-24.28125-.378906-1.402344-1.695313-2.308594-3.167969-2.203125-1.445312.132813-2.59375 1.285157-2.71875 2.734375-1.714844 20.429688-22.621094 23.925782-23.507812 24.0625-1.523438.234375-2.625 1.582032-2.546875 3.121094.082031 1.542969 1.316406 2.769531 2.855469 2.84375 18.054687.851562 22.996093 25.4375 23.042968 25.683594.277344 1.425781 1.519532 2.4375 2.945313 2.4375.085937 0 .167969-.003906.253906-.011719 1.527344-.128906 2.714844-1.386719 2.75-2.917969.386719-17.015625 24.382813-25.554687 24.621094-25.640625 1.355469-.464843 2.1875-1.828125 1.988281-3.242187-.195312-1.417969-1.359375-2.5-2.789062-2.585938zm-27.132813 20.691406c-2.710937-6.261718-7.417969-13.8125-15.171875-17.753906 5.863281-2.804687 12.816406-7.824218 16.402344-16.542968 3.101562 6.144531 8.398437 13.757812 16.667968 17.445312-6.011718 3.28125-13.84375 8.808594-17.898437 16.851562zm0 0" fill="#3a312a"/><path d="m21.441406 56.3125c-1.378906 16.355469-18.421875 18.9375-18.421875 18.9375 14.632813.691406 18.28125 19.890625 18.28125 19.890625.3125-13.691406 18.84375-20.089844 18.84375-20.089844-13.882812-.828125-18.703125-18.738281-18.703125-18.738281zm0 0" fill="#d7e057"/><path d="m40.324219 72.058594c-11.535157-.691406-15.945313-16.375-15.988281-16.53125-.378907-1.402344-1.710938-2.3125-3.164063-2.203125-1.449219.128906-2.597656 1.285156-2.71875 2.738281-1.160156 13.738281-15.296875 16.128906-15.886719 16.222656-1.527344.230469-2.6249998 1.582032-2.5468748 3.121094.078125 1.542969 1.3124998 2.769531 2.8554688 2.84375 12.070312.570312 15.449219 17.289062 15.480469 17.453125.269531 1.425781 1.515625 2.441406 2.945312 2.441406.082031 0 .164063-.003906.25-.011719 1.527344-.125 2.714844-1.386718 2.75-2.917968.261719-11.417969 16.664063-17.269532 16.824219-17.324219 1.351562-.46875 2.1875-1.828125 1.992188-3.246094-.195313-1.417969-1.367188-2.503906-2.792969-2.585937zm-19.171875 13.585937c-1.847656-3.769531-4.679688-7.894531-8.894532-10.558593 3.710938-2.082032 7.394532-5.261719 9.742188-9.832032 2.117188 3.746094 5.308594 7.910156 9.882812 10.445313-3.699218 2.203125-7.976562 5.480469-10.730468 9.945312zm0 0" fill="#3a312a"/><path d="m21.441406 2.996094c-1.378906 16.359375-18.421875 18.941406-18.421875 18.941406 14.632813.691406 18.28125 19.890625 18.28125 19.890625.3125-13.691406 18.84375-20.089844 18.84375-20.089844-13.882812-.832031-18.703125-18.742187-18.703125-18.742187zm0 0" fill="#d7e057"/><path d="m40.324219 18.742188c-11.535157-.691407-15.945313-16.375-15.988281-16.53125-.378907-1.402344-1.710938-2.3125-3.164063-2.2031255-1.449219.1328125-2.597656 1.2851565-2.71875 2.7382815-1.160156 13.742187-15.296875 16.132812-15.886719 16.226562-1.527344.230469-2.6249998 1.582032-2.5468748 3.121094.078125 1.542969 1.3124998 2.765625 2.8554688 2.839844 12.070312.570312 15.449219 17.289062 15.480469 17.453125.269531 1.425781 1.515625 2.441406 2.945312 2.441406.082031 0 .164063-.003906.25-.007813 1.527344-.128906 2.714844-1.390624 2.75-2.921874.261719-11.417969 16.664063-17.265626 16.824219-17.324219 1.351562-.464844 2.1875-1.824219 1.992188-3.242188-.195313-1.421875-1.367188-2.503906-2.792969-2.589843zm-19.171875 13.585937c-1.847656-3.769531-4.679688-7.894531-8.894532-10.558594 3.710938-2.082031 7.394532-5.257812 9.742188-9.832031 2.117188 3.746094 5.308594 7.910156 9.882812 10.449219-3.695312 2.199219-7.976562 5.476562-10.730468 9.941406zm0 0" fill="#3a312a"/><path d="m304.046875 61.175781v44.675781l80.878906 68.621094v-113.296875zm0 0" fill="#87796f"/><path d="m384.925781 58.175781h-80.878906c-1.65625 0-3 1.339844-3 3v44.675781c0 .882813.386719 1.71875 1.058594 2.289063l80.878906 68.621094c.554687.46875 1.246094.714843 1.941406.714843.429688 0 .859375-.09375 1.261719-.28125 1.058594-.492187 1.738281-1.550781 1.738281-2.71875v-113.300781c0-1.660156-1.34375-3-3-3zm-3 109.816407-74.878906-63.527344v-40.289063h74.878906zm0 0" fill="#3a312a"/><path d="m384.871094 25.28125h-80.773438c-8.886718 0-16.09375 7.207031-16.09375 16.097656v3.703125c0 8.890625 7.207032 16.09375 16.09375 16.09375h80.773438c8.890625 0 16.097656-7.203125 16.097656-16.09375v-3.703125c0-8.890625-7.210938-16.097656-16.097656-16.097656zm0 0" fill="#87796f"/><path d="m384.871094 22.28125h-80.773438c-10.527344 0-19.09375 8.566406-19.09375 19.097656v3.703125c0 10.527344 8.566406 19.09375 19.09375 19.09375h80.773438c10.53125 0 19.097656-8.566406 19.097656-19.09375v-3.703125c0-10.53125-8.570312-19.097656-19.097656-19.097656zm13.097656 22.796875c0 7.222656-5.878906 13.097656-13.097656 13.097656h-80.773438c-7.21875 0-13.09375-5.875-13.09375-13.097656v-3.703125c0-7.21875 5.875-13.097656 13.09375-13.097656h80.773438c7.21875 0 13.097656 5.878906 13.097656 13.097656zm0 0" fill="#3a312a"/><path d="m48.378906 230.355469h349.457032v218.671875h-349.457032zm0 0" fill="#f16c7a"/><path d="m397.835938 227.355469h-349.457032c-1.65625 0-3 1.34375-3 3v74.617187c0 1.65625 1.34375 3 3 3s3-1.34375 3-3v-71.617187h343.457032v212.671875h-343.457032v-111.65625c0-1.65625-1.34375-3-3-3s-3 1.34375-3 3v114.65625c0 1.65625 1.34375 3 3 3h349.457032c1.65625 0 3-1.34375 3-3v-218.671875c0-1.65625-1.34375-3-3-3zm0 0" fill="#3a312a"/><path d="m440.082031 221.246094-213.632812-181.207032c-1.925781-1.636718-4.757813-1.636718-6.6875 0l-87.382813 74.121094-22.339844 18.949219-14.414062 12.226563-89.492188 75.910156c-3.671874 3.113281-1.46875 9.109375 3.34375 9.109375h427.261719c4.8125 0 7.011719-5.996094 3.34375-9.109375zm0 0" fill="#87796f"/><path d="m442.023438 218.960938-213.632813-181.210938c-3.058594-2.589844-7.503906-2.597656-10.566406 0l-87.386719 74.125c-1.265625 1.070312-1.417969 2.964844-.347656 4.226562 1.070312 1.261719 2.964844 1.417969 4.230468.347657l87.382813-74.121094c.808594-.691406 1.996094-.691406 2.804687-.003906l213.632813 181.207031c1.070313.910156.753906 2.070312.632813 2.402344-.121094.335937-.628907 1.421875-2.035157 1.421875h-427.265625c-1.402344 0-1.910156-1.085938-2.03125-1.421875-.125-.332032-.441406-1.492188.632813-2.402344l103.902343-88.132812c1.265626-1.070313 1.417969-2.964844.347657-4.230469-1.074219-1.257813-2.964844-1.417969-4.230469-.34375l-103.902344 88.136719c-2.640625 2.238281-3.578125 5.789062-2.382812 9.042968 1.195312 3.25 4.199218 5.351563 7.667968 5.351563h427.261719c3.464844 0 6.476563-2.101563 7.671875-5.351563 1.191406-3.253906.253906-6.804687-2.386718-9.042968zm0 0" fill="#3a312a"/><path d="m248.816406 283.335938h-51.421875c-13.183593 0-23.871093 10.6875-23.871093 23.875v141.820312h99.167968v-141.820312c0-13.1875-10.6875-23.875-23.875-23.875zm0 0" fill="#87796f"/><path d="m248.816406 280.335938h-51.421875c-14.816406 0-26.875 12.054687-26.875 26.875v141.820312c0 1.65625 1.34375 3 3 3h99.171875c1.652344 0 3-1.34375 3-3v-141.820312c0-14.820313-12.054687-26.875-26.875-26.875zm20.875 165.695312h-93.167968v-138.820312c0-11.511719 9.363281-20.875 20.875-20.875h51.421874c11.507813 0 20.871094 9.363281 20.871094 20.875zm0 0" fill="#3a312a"/><path d="m267.183594 152.945312c0 24.34375-19.734375 44.074219-44.074219 44.074219-24.34375 0-44.078125-19.730469-44.078125-44.074219s19.734375-44.078124 44.078125-44.078124c24.339844 0 44.074219 19.734374 44.074219 44.078124zm0 0" fill="#d7e057"/><path d="m223.109375 105.867188c-25.960937 0-47.078125 21.121093-47.078125 47.078124 0 25.957032 21.117188 47.074219 47.078125 47.074219 25.957031 0 47.070313-21.117187 47.070313-47.074219 0-25.957031-21.113282-47.078124-47.070313-47.078124zm0 88.152343c-22.652344 0-41.078125-18.425781-41.078125-41.074219 0-22.648437 18.425781-41.078124 41.078125-41.078124 22.644531 0 41.070313 18.429687 41.070313 41.078124 0 22.648438-18.425782 41.074219-41.070313 41.074219zm0 0" fill="#3a312a"/><path d="m351.925781 64.175781v78.355469l30 25.460938v-103.816407zm0 0" fill="#695b51"/><path d="m384.867188 28.273438h-30c7.21875 0 13.101562 5.878906 13.101562 13.097656v3.703125c0 7.21875-5.882812 13.097656-13.101562 13.097656h30c7.21875 0 13.101562-5.878906 13.101562-13.097656v-3.703125c0-7.21875-5.882812-13.097656-13.101562-13.097656zm0 0" fill="#695b51"/><path d="m364.824219 233.351562h30v212.679688h-30zm0 0" fill="#d34e5c"/><path d="m438.148438 223.53125-86.222657-73.117188-74.878906-63.519531-52.539063-44.5625c-.800781-.699219-2-.699219-2.800781 0l-13.597656 11.539063 200.039063 169.660156c1.058593.902344.738281 2.0625.621093 2.402344-.121093.339844-.621093 1.417968-2.023437 1.417968h30c1.402344 0 1.902344-1.082031 2.023437-1.417968.117188-.339844.4375-1.5-.621093-2.402344zm0 0" fill="#695b51"/></svg>